<svg id="Layer_1" data-name="Layer 1" xmlns="http://www.w3.org/2000/svg" viewBox="0 0 502 502"><defs><style>.cls-1{fill:#243345;}.cls-2{fill:#5cb8e4;}.cls-3{fill:#a3aecb;}.cls-4{fill:#4cc6e9;}.cls-5{fill:#b6bcd1;}.cls-6{fill:#314478;}</style></defs><title>vercel</title><path class="cls-1" d="M512,252.22c-.11,138.46-112.86,251-251.35,250.78S9.79,390.06,10,251.51,123.09.7,261.62,1C399.84,1.3,512.11,113.94,512,252.22Zm-403.12.28c.22,83.54,68.8,151.84,152.34,151.72C345,404.1,413.72,335.28,413,251.57,412.35,167.31,345,99.93,260.54,100.2S109.39,168.34,108.88,252.5Z" transform="translate(-10 -1)"/><path class="cls-2" d="M108.88,252.5c.51-84.16,67.09-152,151.66-152.3S412.35,167.31,413,251.57c.68,83.71-68.07,152.53-151.82,152.65C177.68,404.34,109.1,336,108.88,252.5ZM280.16,120.43c4.74-8.94,4.55-9.18-5.33-10.14-22.78-2.22-44.64,1.4-66.17,9-8.44,3-12.41,7.8-12.47,16.38a47.67,47.67,0,0,0-3.26,13.23q-1,6.33-2,12.66l-1.06,2C152,192.86,138.45,242,152.2,286.81A106.26,106.26,0,0,0,186,337.86c15.77,13.15,33,22.84,53.69,26.24,33.79,5.55,64.23-1.62,91.49-22.28,61.86-46.9,57-145.18-9.06-186a125.11,125.11,0,0,0-46.49-17l2.38-9C279.46,126.91,280.55,123.84,280.16,120.43Z" transform="translate(-10 -1)"/><path class="cls-3" d="M189.85,163.62l1.06-2c1.51-.92,3.06-1.76,4.5-2.75q36.3-24.9,80-20.05l-1.71,9.47c-2.62,6.72-3.35,13.89-5,20.83-.94,3.87.27,5.61,4.17,5.64a311,311,0,0,0-5.65,40.44c-.33,5.26.22,11.13-4.82,15.13-1.27,1-1.28,2.86-1.31,4.47a513.42,513.42,0,0,0,2.58,65.72c1.1,9.9,3.89,19.89.34,29.89-12.67,1.07-24.62-1.66-36.16-6.72-12-5.26-21-14.17-29.47-23.78-8.92-11.3-13.65-24.25-15.26-38.46-1.68-14.84.12-29.62.89-44.4.68-13,2.39-26,3.65-39Q188.75,170.83,189.85,163.62Z" transform="translate(-10 -1)"/><path class="cls-4" d="M273.73,148.26l1.71-9.47.18.07a125.11,125.11,0,0,1,46.49,17c66.06,40.78,70.92,139.06,9.06,186-27.26,20.66-57.7,27.83-91.49,22.28C219,360.7,201.76,351,186,337.86a106.26,106.26,0,0,1-33.79-51.05C138.45,242,152,192.86,189.85,163.62q-1.09,7.2-2.2,14.39a93.86,93.86,0,0,0-25.4,40.25c-8.82,26.8-7.66,53.14,4.89,78.7.38,2.52,1.81,4.58,3.06,6.71,22.94,38.75,63.76,58.9,108.15,51.08,41.3-7.28,68.84-31.95,82.33-71.9C380,220.23,337.59,156.3,273.73,148.26Z" transform="translate(-10 -1)"/><path class="cls-5" d="M275.62,138.86l-.18-.07q-43.73-4.78-80,20.05c-1.44,1-3,1.83-4.5,2.75q1-6.33,2-12.66c26.09-16.5,54.31-23.42,85.07-19Z" transform="translate(-10 -1)"/><path class="cls-1" d="M278,129.91c-30.76-4.4-59,2.52-85.07,19a47.67,47.67,0,0,1,3.26-13.23c26.37-14,54.27-19.56,84-15.27C280.55,123.84,279.46,126.91,278,129.91Z" transform="translate(-10 -1)"/><path class="cls-4" d="M280.16,120.43c-29.7-4.29-57.6,1.29-84,15.27.06-8.58,4-13.39,12.47-16.38,21.53-7.63,43.39-11.25,66.17-9C284.71,111.25,284.9,111.49,280.16,120.43Z" transform="translate(-10 -1)"/><path class="cls-5" d="M264,330.38c3.55-10,.76-20-.34-29.89a513.42,513.42,0,0,1-2.58-65.72c0-1.61,0-3.46,1.31-4.47,5-4,4.49-9.87,4.82-15.13a311,311,0,0,1,5.65-40.44A73,73,0,0,1,317.6,198c21.46,23.22,26.67,50.27,17.46,80.3l-1.77,3.83C319.53,311.6,296.56,327.87,264,330.38Z" transform="translate(-10 -1)"/><path class="cls-6" d="M264,330.38c32.56-2.51,55.53-18.78,69.29-48.27l1.77-3.83c1.87,3.11,4.49,4.31,8.23,4.8a64.88,64.88,0,0,0,17.39-.23c-13.49,39.95-41,64.62-82.33,71.9-44.39,7.82-85.21-12.33-108.15-51.08-1.25-2.13-2.68-4.19-3.06-6.72,10.51-.15,21.18-1.91,31.23,2.93,8.46,9.61,17.48,18.52,29.47,23.78C239.38,328.72,251.33,331.45,264,330.38Z" transform="translate(-10 -1)"/><path class="cls-1" d="M360.68,282.85a64.88,64.88,0,0,1-17.39.23c-3.74-.49-6.36-1.69-8.23-4.8,9.21-30,4-57.08-17.46-80.3a73,73,0,0,0-44.74-23.25c-3.9,0-5.11-1.77-4.17-5.64,1.69-6.94,2.42-14.11,5-20.83C337.59,156.3,380,220.23,360.68,282.85Z" transform="translate(-10 -1)"/><path class="cls-1" d="M198.37,299.88c-10.05-4.84-20.72-3.08-31.23-2.93-12.55-25.55-13.71-51.89-4.89-78.69A93.86,93.86,0,0,1,187.65,178c-1.26,13-3,26-3.65,39-.77,14.78-2.57,29.56-.89,44.4C184.72,275.63,189.45,288.58,198.37,299.88Z" transform="translate(-10 -1)"/></svg>